
<svg version="1.0" xmlns="http://www.w3.org/2000/svg"
 width="512.000000pt" height="512.000000pt" viewBox="0 0 512.000000 512.000000"
 preserveAspectRatio="xMidYMid meet">

<g transform="translate(0.000000,512.000000) scale(0.100000,-0.100000)"
fill="#000000" stroke="none">
<path d="M1330 4494 c-105 -28 -199 -106 -243 -202 l-22 -47 -3 -1220 c-2
-957 0 -1217 10 -1207 17 17 2958 18 2976 0 9 -9 12 186 12 881 0 774 -2 892
-14 882 -11 -9 -97 -11 -328 -9 l-313 3 -55 26 c-82 39 -144 99 -182 177 l-33
67 -3 318 c-2 232 0 323 9 333 18 21 -1730 20 -1811 -2z m454 -527 c19 -29 10
-66 -18 -73 -11 -2 -61 -4 -111 -2 -87 3 -90 4 -99 30 -8 22 -6 32 9 48 16 17
30 20 111 20 86 0 95 -2 108 -23z m1050 7 c19 -18 20 -38 6 -65 -10 -18 -25
-19 -408 -19 -218 0 -402 4 -408 8 -20 14 -25 45 -9 68 l15 24 395 0 c344 0
396 -2 409 -16z m-416 -406 c16 -16 15 -63 -2 -77 -9 -8 -131 -10 -432 -9
l-419 3 -9 27 c-8 22 -6 32 9 48 18 19 29 20 430 20 306 0 414 -3 423 -12z
m550 0 c16 -16 15 -63 -2 -77 -9 -8 -61 -11 -162 -9 l-149 3 -9 27 c-8 22 -6
32 9 48 17 18 30 20 160 20 96 0 145 -4 153 -12z m-1037 -408 c22 -13 26 -62
5 -79 -9 -8 -69 -11 -192 -9 l-179 3 -9 27 c-8 22 -6 32 9 48 17 19 30 20 182
20 94 0 173 -4 184 -10z m1624 -10 c15 -16 17 -26 9 -48 l-9 -27 -684 -3
c-497 -1 -688 1 -697 9 -19 15 -18 54 2 73 14 14 90 16 688 16 664 0 673 0
691 -20z m-611 -406 c20 -19 21 -58 2 -73 -9 -8 -200 -10 -697 -9 l-684 3 -9
27 c-8 22 -6 32 9 48 18 20 27 20 691 20 598 0 674 -2 688 -16z m611 -4 c15
-16 17 -26 9 -48 l-9 -27 -179 -3 c-189 -3 -206 1 -206 44 0 49 18 54 199 54
156 0 169 -1 186 -20z m-1307 -402 c16 -16 15 -63 -2 -77 -9 -8 -109 -11 -347
-9 l-334 3 -9 27 c-8 22 -6 32 9 48 17 19 29 20 345 20 240 0 329 -3 338 -12z
m1307 -8 c15 -16 17 -26 9 -48 l-9 -27 -535 0 -535 0 -9 27 c-8 22 -6 32 9 48
18 20 28 20 535 20 507 0 517 0 535 -20z"/>
</g>
</svg>
